<?xml version="1.0" standalone="no"?>
<!DOCTYPE svg PUBLIC "-//W3C//DTD SVG 20010904//EN"
 "http://www.w3.org/TR/2001/REC-SVG-20010904/DTD/svg10.dtd">
<svg version="1.0" xmlns="http://www.w3.org/2000/svg"
 width="700.000000pt" height="700.000000pt" viewBox="0 0 700.000000 700.000000"
 preserveAspectRatio="xMidYMid meet">
<metadata>
Created by potrace 1.11, written by Peter Selinger 2001-2013
</metadata>
<g transform="translate(0.000000,700.000000) scale(0.100000,-0.100000)"
fill="#000000" stroke="none">
<path d="M3235 6974 c-460 -46 -838 -149 -1220 -333 -354 -171 -647 -375 -924
-646 -505 -492 -847 -1117 -986 -1800 -54 -265 -69 -423 -69 -710 0 -550 108
-1031 339 -1512 288 -600 727 -1094 1287 -1449 387 -245 809 -406 1285 -491
156 -28 163 -28 568 -28 405 0 412 0 567 28 612 109 1138 345 1605 720 720
578 1183 1415 1287 2327 86 754 -74 1525 -450 2167 -498 852 -1331 1458 -2278
1658 -256 55 -372 67 -681 70 -159 1 -308 1 -330 -1z m2415 -1789 l0 -175
-1185 0 -1184 0 -22 -52 c-12 -29 -87 -179 -166 -333 -298 -583 -357 -705
-346 -716 14 -14 584 -27 1629 -35 l861 -7 6 -750 c4 -413 7 -995 7 -1294 l0
-544 -37 7 c-266 45 -312 87 -313 285 0 50 -5 73 -19 90 -18 22 -26 24 -202
30 -101 4 -608 8 -1126 8 l-943 1 0 -67 c0 -85 -16 -226 -30 -269 -9 -27 -21
-36 -63 -53 -63 -23 -157 -35 -176 -22 -11 7 -15 126 -22 662 -9 724 -26 1310
-37 1321 -4 4 -100 -80 -212 -188 -288 -276 -517 -487 -546 -502 -30 -16 -51
-6 -88 42 -66 87 -85 190 -46 253 23 39 165 204 345 403 316 349 428 489 622
780 145 217 259 400 367 589 125 219 156 294 132 326 -15 21 -246 31 -899 41
-263 4 -479 10 -481 13 -2 3 -7 79 -11 169 l-7 162 2096 0 2096 0 0 -175z"/>
<path d="M2586 3534 c-8 -20 -8 -1468 0 -1488 6 -14 117 -16 1160 -16 l1154 0
0 760 0 760 -1154 0 c-1043 0 -1154 -2 -1160 -16z"/>
</g>
</svg>
