<?xml version="1.0" encoding="UTF-8" standalone="no"?>
<!-- Generator: Adobe Illustrator 19.0.0, SVG Export Plug-In . SVG Version: 6.00 Build 0)  -->

<svg
   xmlns:dc="http://purl.org/dc/elements/1.1/"
   xmlns:cc="http://creativecommons.org/ns#"
   xmlns:rdf="http://www.w3.org/1999/02/22-rdf-syntax-ns#"
   xmlns:svg="http://www.w3.org/2000/svg"
   xmlns="http://www.w3.org/2000/svg"
   xmlns:sodipodi="http://sodipodi.sourceforge.net/DTD/sodipodi-0.dtd"
   xmlns:inkscape="http://www.inkscape.org/namespaces/inkscape"
   version="1.1"
   id="Capa_1"
   x="0px"
   y="0px"
   viewBox="0 0 490.667 490.667"
   style="enable-background:new 0 0 490.667 490.667;"
   xml:space="preserve"
   sodipodi:docname="grid.svg"
   inkscape:version="0.92.5 (2060ec1f9f, 2020-04-08)"><metadata
   id="metadata55"><rdf:RDF><cc:Work
       rdf:about=""><dc:format>image/svg+xml</dc:format><dc:type
         rdf:resource="http://purl.org/dc/dcmitype/StillImage" /></cc:Work></rdf:RDF></metadata><defs
   id="defs53" /><sodipodi:namedview
   pagecolor="#ffffff"
   bordercolor="#666666"
   borderopacity="1"
   objecttolerance="10"
   gridtolerance="10"
   guidetolerance="10"
   inkscape:pageopacity="0"
   inkscape:pageshadow="2"
   inkscape:window-width="1920"
   inkscape:window-height="1001"
   id="namedview51"
   showgrid="false"
   inkscape:zoom="0.96195588"
   inkscape:cx="-20.870433"
   inkscape:cy="269.32125"
   inkscape:window-x="-9"
   inkscape:window-y="-9"
   inkscape:window-maximized="1"
   inkscape:current-layer="Capa_1" />
<path
   style="fill:#455A64;"
   d="M480,192c5.891,0,10.667-4.776,10.667-10.667c0-5.891-4.776-10.667-10.667-10.667h-32V64h32  c5.891,0,10.667-4.776,10.667-10.667S485.891,42.667,480,42.667h-32v-32C448,4.776,443.224,0,437.333,0s-10.667,4.776-10.667,10.667  v32H320v-32C320,4.776,315.224,0,309.333,0s-10.667,4.776-10.667,10.667v32H192v-32C192,4.776,187.224,0,181.333,0  c-5.891,0-10.667,4.776-10.667,10.667v32H64v-32C64,4.776,59.224,0,53.333,0S42.667,4.776,42.667,10.667v32h-32  C4.776,42.667,0,47.442,0,53.333S4.776,64,10.667,64h32v106.667h-32C4.776,170.667,0,175.442,0,181.333  C0,187.224,4.776,192,10.667,192h32v106.667h-32C4.776,298.667,0,303.442,0,309.333S4.776,320,10.667,320h32v106.667h-32  C4.776,426.667,0,431.442,0,437.333S4.776,448,10.667,448h32v32c0,5.891,4.776,10.667,10.667,10.667S64,485.891,64,480v-32h106.667  v32c0,5.891,4.776,10.667,10.667,10.667c5.891,0,10.667-4.776,10.667-10.667v-32h106.667v32c0,5.891,4.776,10.667,10.667,10.667  S320,485.891,320,480v-32h106.667v32c0,5.891,4.776,10.667,10.667,10.667S448,485.891,448,480v-32h32  c5.891,0,10.667-4.776,10.667-10.667s-4.776-10.667-10.667-10.667h-32V320h32c5.891,0,10.667-4.776,10.667-10.667  s-4.776-10.667-10.667-10.667h-32V192H480z M426.667,64v106.667H320V64H426.667z M298.667,64v106.667H192V64H298.667z M298.667,192  v106.667H192V192H298.667z M64,64h106.667v106.667H64V64z M64,192h106.667v106.667H64V192z M64,426.667V320h106.667v106.667H64z   M192,426.667V320h106.667v106.667H192z M426.667,426.667H320V320h106.667V426.667z M426.667,298.667H320V192h106.667V298.667z"
   id="path2" />
<path
   d="M53.333,490.667c-5.891,0-10.667-4.776-10.667-10.667V10.667C42.667,4.776,47.442,0,53.333,0S64,4.776,64,10.667V480  C64,485.891,59.224,490.667,53.333,490.667z"
   id="path4" />
<path
   d="M181.333,490.667c-5.891,0-10.667-4.776-10.667-10.667V10.667C170.667,4.776,175.442,0,181.333,0  C187.224,0,192,4.776,192,10.667V480C192,485.891,187.224,490.667,181.333,490.667z"
   id="path6" />
<path
   d="M309.333,490.667c-5.891,0-10.667-4.776-10.667-10.667V10.667C298.667,4.776,303.442,0,309.333,0S320,4.776,320,10.667V480  C320,485.891,315.224,490.667,309.333,490.667z"
   id="path8" />
<path
   d="M437.333,490.667c-5.891,0-10.667-4.776-10.667-10.667V10.667C426.667,4.776,431.442,0,437.333,0S448,4.776,448,10.667V480  C448,485.891,443.224,490.667,437.333,490.667z"
   id="path10" />
<path
   d="M480,448H10.667C4.776,448,0,443.224,0,437.333s4.776-10.667,10.667-10.667H480c5.891,0,10.667,4.776,10.667,10.667  S485.891,448,480,448z"
   id="path12" />
<path
   d="M480,320H10.667C4.776,320,0,315.224,0,309.333s4.776-10.667,10.667-10.667H480c5.891,0,10.667,4.776,10.667,10.667  S485.891,320,480,320z"
   id="path14" />
<path
   d="M480,192H10.667C4.776,192,0,187.224,0,181.333c0-5.891,4.776-10.667,10.667-10.667H480c5.891,0,10.667,4.776,10.667,10.667  C490.667,187.224,485.891,192,480,192z"
   id="path16" />
<path
   d="M480,64H10.667C4.776,64,0,59.224,0,53.333s4.776-10.667,10.667-10.667H480c5.891,0,10.667,4.776,10.667,10.667  S485.891,64,480,64z"
   id="path18" />
<g
   id="g20">
</g>
<g
   id="g22">
</g>
<g
   id="g24">
</g>
<g
   id="g26">
</g>
<g
   id="g28">
</g>
<g
   id="g30">
</g>
<g
   id="g32">
</g>
<g
   id="g34">
</g>
<g
   id="g36">
</g>
<g
   id="g38">
</g>
<g
   id="g40">
</g>
<g
   id="g42">
</g>
<g
   id="g44">
</g>
<g
   id="g46">
</g>
<g
   id="g48">
</g>
<ellipse
   id="path3765"
   cx="181.61655"
   cy="178.28261"
   rx="84.329567"
   ry="87.841866"
   style="stroke-width:1.01333714" /><ellipse
   style="fill:#ffffff;stroke:#000000;stroke-width:1.02690303;stroke-opacity:1"
   id="path3769"
   cx="308.28925"
   cy="306.3624"
   rx="83.334953"
   ry="83.539429" /></svg>