<?xml version="1.0" encoding="UTF-8" standalone="no"?>
<svg
   xmlns:dc="http://purl.org/dc/elements/1.1/"
   xmlns:cc="http://creativecommons.org/ns#"
   xmlns:rdf="http://www.w3.org/1999/02/22-rdf-syntax-ns#"
   xmlns:svg="http://www.w3.org/2000/svg"
   xmlns="http://www.w3.org/2000/svg"
   xmlns:sodipodi="http://sodipodi.sourceforge.net/DTD/sodipodi-0.dtd"
   xmlns:inkscape="http://www.inkscape.org/namespaces/inkscape"
   version="1.0"
   width="122.000000pt"
   height="122.000000pt"
   viewBox="0 0 122.000000 122.000000"
   preserveAspectRatio="xMidYMid meet"
   id="svg8"
   sodipodi:docname="kamen.svg"
   inkscape:version="0.92.5 (2060ec1f9f, 2020-04-08)">
  <defs
     id="defs12" />
  <sodipodi:namedview
     pagecolor="#ffffff"
     bordercolor="#666666"
     borderopacity="1"
     objecttolerance="10"
     gridtolerance="10"
     guidetolerance="10"
     inkscape:pageopacity="0"
     inkscape:pageshadow="2"
     inkscape:window-width="1920"
     inkscape:window-height="1001"
     id="namedview10"
     showgrid="false"
     inkscape:zoom="4.1035377"
     inkscape:cx="68.544732"
     inkscape:cy="94.585507"
     inkscape:window-x="-9"
     inkscape:window-y="-9"
     inkscape:window-maximized="1"
     inkscape:current-layer="svg8" />
  <metadata
     id="metadata2">
Created by potrace 1.16, written by Peter Selinger 2001-2019
<rdf:RDF>
  <cc:Work
     rdf:about="">
    <dc:format>image/svg+xml</dc:format>
    <dc:type
       rdf:resource="http://purl.org/dc/dcmitype/StillImage" />
  </cc:Work>
</rdf:RDF>
</metadata>
  <g
     transform="matrix(0.1,0,0,-0.1,-0.9138456,129.31076)"
     id="g6"
     style="fill:#000000;stroke:none">
    <path
       d="m 220,970 v -30 h 125 c 69,0 125,-3 125,-8 0,-15 -90,-165 -126,-210 -21,-26 -62,-73 -92,-104 -51,-53 -55,-59 -44,-83 6,-14 16,-25 21,-25 5,0 36,29 70,65 33,36 63,65 66,65 3,0 5,-79 5,-175 V 290 h 25 c 22,0 25,4 25,35 v 35 h 199 200 l 3,-33 c 2,-27 8,-33 31,-35 l 27,-3 V 514 740 H 660 c -121,0 -220,3 -220,6 0,3 16,33 35,66 20,33 42,75 50,94 l 14,34 h 205 206 v 30 30 H 585 220 Z M 820,550 V 420 H 620 420 v 130 130 h 200 200 z"
       id="path4"
       style="fill-rule:evenodd"
       inkscape:connector-curvature="0" />
  </g>
  <ellipse
     style="opacity:1;fill:none;fill-opacity:1;fill-rule:evenodd;stroke:#0055d4;stroke-width:0;stroke-linecap:round;stroke-linejoin:round;stroke-miterlimit:4;stroke-dasharray:none;stroke-opacity:1"
     id="path826"
     cx="61.387711"
     cy="62.421608"
     rx="59.06144"
     ry="54.150421" />
  <ellipse
     style="opacity:1;fill:none;fill-opacity:1;fill-rule:evenodd;stroke:#000000;stroke-width:1.10771847;stroke-linecap:round;stroke-linejoin:round;stroke-miterlimit:4;stroke-dasharray:none;stroke-opacity:1"
     id="path830"
     cx="61.258476"
     cy="61.258472"
     rx="60.158215"
     ry="60.416687" />
  <path
     style="opacity:1;fill:#000000;fill-opacity:1;fill-rule:evenodd;stroke:#000000;stroke-width:0.63359964;stroke-linecap:round;stroke-linejoin:round;stroke-miterlimit:4;stroke-dasharray:none;stroke-opacity:1"
     d="m 72.650848,161.08898 c -9.082729,-1.0556 -17.29977,-3.51062 -25.916657,-7.74315 C 30.742944,145.49106 18.37155,133.11622 10.406515,117.00801 7.0352549,110.1901 5.0412173,104.31337 3.5030153,96.66235 1.9122361,88.749816 1.9122361,74.595483 3.5030153,66.682949 7.7592575,45.512406 19.410324,27.774215 37.141065,15.470628 41.829513,12.217254 51.19347,7.6169769 57.032695,5.6983723 77.732181,-1.1029004 101.19576,1.1624814 120.1861,11.79576 c 6.85758,3.839777 12.1231,7.885255 17.93265,13.777589 6.30668,6.396542 10.78847,12.632055 14.57381,20.276552 3.51,7.088454 4.88814,10.907223 6.69079,18.540012 1.30625,5.530916 1.37669,6.415299 1.37669,17.282737 0,10.867437 -0.0704,11.75182 -1.37669,17.282736 -1.80265,7.632794 -3.18079,11.451554 -6.69079,18.540014 -3.78534,7.64449 -8.26713,13.88001 -14.57381,20.27655 -10.31339,10.46036 -22.13261,17.38446 -36.07384,21.1333 -8.88526,2.38927 -20.317586,3.23859 -29.394062,2.18373 z M 53.951797,132.89264 c 0.325276,-0.32514 0.656112,-2.3913 0.752405,-4.69893 l 0.171857,-4.11862 h 26.46029 c 29.261761,0 27.051961,-0.25707 27.051961,3.14694 0,4.60449 1.01089,5.81541 5.23938,6.27606 l 2.55877,0.27876 V 103.88064 73.984435 L 87.20703,73.803191 C 68.680591,73.687325 58.050865,73.445212 57.737619,73.131965 c -0.328395,-0.328394 1.135527,-3.380902 4.43893,-9.255877 2.71091,-4.821235 5.696583,-10.575299 6.634827,-12.786805 l 1.705908,-4.020921 H 97.98202 125.44676 V 43.169287 39.270212 H 76.95202 28.457279 v 3.858722 3.858721 l 16.059845,0.162199 c 11.060217,0.111705 16.230624,0.333146 16.60843,0.711315 0.676285,0.676939 -1.016572,4.16202 -6.243715,12.853954 -7.410834,12.32307 -12.207961,18.599756 -22.536041,29.486753 -4.983849,5.253554 -6.328084,7.084433 -6.317424,8.604463 0.01123,1.601831 2.033494,4.999731 3.097546,5.204641 0.612752,0.11801 3.559278,-2.48777 9.554989,-8.450002 4.767966,-4.741343 8.805642,-8.399581 8.972615,-8.129415 0.166973,0.270167 0.448378,10.843147 0.625346,23.495507 l 0.321759,23.00429 2.385313,-0.22919 c 1.311926,-0.12607 2.64656,-0.49035 2.965855,-0.80953 z"
     id="path832"
     inkscape:connector-curvature="0"
     transform="scale(0.74999998)" />
  <path
     style="opacity:1;fill:#ffffff;fill-opacity:1;fill-rule:evenodd;stroke:#000000;stroke-width:0.47519973;stroke-linecap:round;stroke-linejoin:round;stroke-miterlimit:4;stroke-dasharray:none;stroke-opacity:1"
     d="M 40.463847,99.669477 C 40.329816,99.535452 40.19871,94.806297 40.172499,89.160253 40.146287,83.514215 40.022919,75.79646 39.898345,72.009695 l -0.226498,-6.885034 -6.101501,5.855561 c -3.355826,3.220554 -6.441719,6.037636 -6.857542,6.260176 -0.636024,0.340395 -0.90083,0.248392 -1.668136,-0.57954 -1.375236,-1.483905 -1.851944,-3.42418 -1.165409,-4.743396 0.304712,-0.585519 2.735721,-3.449716 5.402244,-6.364884 2.666523,-2.915167 5.834898,-6.533996 7.040833,-8.041841 2.763845,-3.455784 7.507994,-10.622269 10.647253,-16.083683 2.433605,-4.233777 3.046581,-5.678435 2.599215,-6.125803 -0.133731,-0.133729 -5.622851,-0.331684 -12.198047,-0.439899 L 25.415855,34.664597 25.31024,31.466137 25.204624,28.267678 h 36.750825 36.750827 v 3.289844 3.289844 H 78.038075 57.369875 L 56.2639,37.314749 c -0.608287,1.357061 -2.759589,5.559244 -4.780673,9.338185 -2.021083,3.77894 -3.567916,6.977582 -3.437406,7.108092 0.13051,0.130511 9.978704,0.328494 21.884872,0.439964 l 21.647584,0.202672 0.09416,22.787356 0.09417,22.787354 -1.556325,-0.240922 C 86.16842,99.11177 85.18136,98.117202 85.18136,94.6703 c 0,-1.51185 -0.07027,-1.625025 -1.14231,-1.839427 -0.628268,-0.125655 -9.510849,-0.228465 -19.739066,-0.228465 H 45.703228 l -0.02107,1.736309 c -0.01159,0.954968 -0.137452,2.39427 -0.279701,3.198458 -0.221259,1.25085 -0.442719,1.5252 -1.532472,1.898445 -1.431793,0.490387 -3.039248,0.60076 -3.406143,0.233857 z M 85.181362,73.411651 V 60.435043 H 65.259524 45.33769 V 73.411651 86.38826 h 19.921834 19.921838 z"
     id="path836"
     inkscape:connector-curvature="0" />
  <path
     style="opacity:1;fill:#000000;fill-opacity:1;fill-rule:evenodd;stroke:#000000;stroke-width:0.44802257;stroke-linecap:round;stroke-linejoin:round;stroke-miterlimit:4;stroke-dasharray:none;stroke-opacity:1"
     d="M 60.947578,98.330961 V 81.960905 H 84.554923 108.16227 V 98.330961 114.70102 H 84.554923 60.947578 Z"
     id="path844"
     inkscape:connector-curvature="0"
     transform="scale(0.74999998)" />
  <path
     style="opacity:1;fill:#000000;fill-opacity:1;fill-rule:evenodd;stroke:#000000;stroke-width:0.15839991;stroke-linecap:round;stroke-linejoin:round;stroke-miterlimit:4;stroke-dasharray:none;stroke-opacity:1"
     d="m 60.181181,115.16376 c -0.03643,-0.15093 -0.05121,-8.03298 -0.03285,-17.515648 l 0.03338,-17.241221 h 26.806139 26.80614 v 17.484914 17.484915 l -26.773289,0.0307 -26.773287,0.0307 z M 96.217685,81.716744 c -6.517243,-0.01742 -17.181821,-0.01742 -23.699064,0 -6.517242,0.01742 -1.184953,0.03167 11.849532,0.03167 13.034485,0 18.366777,-0.01425 11.849532,-0.03167 z"
     id="path846"
     inkscape:connector-curvature="0"
     transform="scale(0.74999998)" />
</svg>
