<?xml version="1.0" encoding="UTF-8" standalone="no"?>
<svg
   xmlns:dc="http://purl.org/dc/elements/1.1/"
   xmlns:cc="http://creativecommons.org/ns#"
   xmlns:rdf="http://www.w3.org/1999/02/22-rdf-syntax-ns#"
   xmlns:svg="http://www.w3.org/2000/svg"
   xmlns="http://www.w3.org/2000/svg"
   xmlns:sodipodi="http://sodipodi.sourceforge.net/DTD/sodipodi-0.dtd"
   xmlns:inkscape="http://www.inkscape.org/namespaces/inkscape"
   width="1em"
   height="1em"
   viewBox="0 0 16 16"
   class="bi bi-check-circle"
   fill="currentColor"
   version="1.1"
   id="svg6"
   sodipodi:docname="offline.svg"
   inkscape:version="0.92.5 (2060ec1f9f, 2020-04-08)">
  <metadata
     id="metadata12">
    <rdf:RDF>
      <cc:Work
         rdf:about="">
        <dc:format>image/svg+xml</dc:format>
        <dc:type
           rdf:resource="http://purl.org/dc/dcmitype/StillImage" />
        <dc:title />
      </cc:Work>
    </rdf:RDF>
  </metadata>
  <defs
     id="defs10" />
  <sodipodi:namedview
     pagecolor="#ffffff"
     bordercolor="#666666"
     borderopacity="1"
     objecttolerance="10"
     gridtolerance="10"
     guidetolerance="10"
     inkscape:pageopacity="0"
     inkscape:pageshadow="2"
     inkscape:window-width="1920"
     inkscape:window-height="1001"
     id="namedview8"
     showgrid="false"
     inkscape:zoom="59"
     inkscape:cx="8.5095054"
     inkscape:cy="8.9890461"
     inkscape:window-x="-9"
     inkscape:window-y="-9"
     inkscape:window-maximized="1"
     inkscape:current-layer="svg6" />
  <path
     fill-rule="evenodd"
     d="M8 15A7 7 0 1 0 8 1a7 7 0 0 0 0 14zm0 1A8 8 0 1 0 8 0a8 8 0 0 0 0 16z"
     id="path2" />
  <path
     style="opacity:1;fill:#b3b3b3;fill-opacity:1;stroke:#000000;stroke-width:0;stroke-linecap:round;stroke-linejoin:round;stroke-miterlimit:4;stroke-dasharray:none;stroke-opacity:1"
     d="M 7.6386177,14.980451 C 6.6591269,14.921347 5.7906327,14.695565 4.9300392,14.276304 3.9257663,13.787046 2.9954227,13.002555 2.3301429,12.084003 1.6632502,11.163224 1.2289177,10.071335 1.0667951,8.9080148 1.0023721,8.4457439 1.0088842,7.4763623 1.0795159,7.0144068 1.2750543,5.7355184 1.7659402,4.6068484 2.5598676,3.6107064 2.7852452,3.3279247 3.3472312,2.7701845 3.6424871,2.5362659 4.6812292,1.7133156 5.9025838,1.2080904 7.2191476,1.0567457 7.6976784,1.0017365 8.6299155,1.0190833 9.0725363,1.091233 11.330301,1.4592616 13.23534,2.8523082 14.253652,4.8798885 c 0.654958,1.3041012 0.88053,2.8341957 0.633847,4.29951 -0.326236,1.9378655 -1.497826,3.6872135 -3.175718,4.7417895 -1.203366,0.756331 -2.6893213,1.142767 -4.0731633,1.059263 z"
     id="path7"
     inkscape:connector-curvature="0" />
  <path
     style="opacity:1;fill:#b3b3b3;fill-opacity:1;stroke:#000000;stroke-width:0;stroke-linecap:round;stroke-linejoin:round;stroke-miterlimit:4;stroke-dasharray:none;stroke-opacity:1"
     d="M 6.6775566,14.881115 C 3.937402,14.267841 1.8361318,12.245396 1.198558,9.6076493 0.99511607,8.7659768 0.9961677,7.241073 1.2007823,6.3824648 2.2517687,1.9722921 7.2000385,-0.26828233 11.259294,1.8279752 c 1.045263,0.5397889 2.3605,1.830795 2.864086,2.8113209 0.584734,1.1385314 0.743785,1.7550571 0.81838,3.1722904 0.06279,1.1929006 -0.156608,2.1828165 -0.751929,3.3927205 -0.322796,0.656039 -0.567341,0.980065 -1.271365,1.684578 -1.459718,1.460735 -2.9385824,2.067684 -4.9858512,2.046269 -0.5848152,-0.0061 -1.1495914,-0.03043 -1.2550582,-0.05404 z"
     id="path9"
     inkscape:connector-curvature="0" />
  <path
     style="opacity:1;fill:#b3b3b3;fill-opacity:1;stroke:#000000;stroke-width:0;stroke-linecap:round;stroke-linejoin:round;stroke-miterlimit:4;stroke-dasharray:none;stroke-opacity:1"
     d="m 7.3478395,14.962175 c -0.00891,-0.0089 -0.113119,-0.02355 -0.2315776,-0.03252 -0.4377407,-0.03318 -1.2626648,-0.241369 -1.6190566,-0.408601 -0.062958,-0.02954 -0.1316017,-0.05645 -0.1525424,-0.05978 -0.061048,-0.0097 -0.8450691,-0.406172 -0.8954281,-0.45277 -0.025187,-0.02331 -0.067585,-0.04237 -0.09422,-0.04237 -0.026634,0 -0.048426,-0.01525 -0.048426,-0.0339 0,-0.01864 -0.015892,-0.0339 -0.035316,-0.0339 -0.019424,0 -0.068063,-0.03051 -0.1080868,-0.0678 -0.040024,-0.03729 -0.092776,-0.0678 -0.1172267,-0.0678 -0.024451,0 -0.044456,-0.01526 -0.044456,-0.0339 0,-0.01864 -0.022881,-0.0339 -0.050847,-0.0339 -0.027966,0 -0.050848,-0.01573 -0.050848,-0.03496 0,-0.01923 -0.024771,-0.04447 -0.055048,-0.05609 C 3.8144855,13.59227 3.7267736,13.524295 3.6498464,13.452832 3.5729192,13.381369 3.4990106,13.32271 3.485605,13.322477 3.4545341,13.321938 2.6458797,12.513107 2.6446658,12.481354 2.6441674,12.468316 2.5829635,12.389004 2.5086571,12.305105 2.3186071,12.090523 2.306589,12.074647 2.306589,12.038175 c 0,-0.01788 -0.011441,-0.03759 -0.025424,-0.0438 -0.02776,-0.01234 -0.219922,-0.2854 -0.2584321,-0.367232 C 2.0095723,11.599173 1.9533592,11.500021 1.8978152,11.4068 1.5056747,10.748665 1.1779771,9.7720736 1.0732077,8.9493373 1.034006,8.6414929 1.0287762,7.4269309 1.0653979,7.1356139 1.1121474,6.7637343 1.1278695,6.6723485 1.1937001,6.3898512 1.4082108,5.4693268 1.8360809,4.5631058 2.434088,3.7627326 2.6231063,3.5097504 3.3766285,2.7378847 3.5923329,2.5762919 3.6971975,2.4977336 3.7890477,2.4246847 3.8899041,2.3396321 c 0.022518,-0.01899 0.05684,-0.034527 0.076271,-0.034527 0.019431,0 0.035329,-0.013403 0.035329,-0.029786 0,-0.016382 0.045763,-0.048741 0.1016949,-0.071909 0.055932,-0.023168 0.1016949,-0.055527 0.1016949,-0.071909 0,-0.016382 0.022881,-0.029786 0.050848,-0.029786 0.027966,0 0.050847,-0.015254 0.050847,-0.033898 0,-0.018644 0.021792,-0.033898 0.048426,-0.033898 0.026635,0 0.068584,-0.019068 0.09322,-0.042373 0.024637,-0.023305 0.1401333,-0.087127 0.2566587,-0.141826 C 4.821419,1.7950211 4.916758,1.7369172 4.916758,1.7206008 c 0,-0.016316 0.015254,-0.020238 0.033898,-0.00872 0.018644,0.011523 0.033898,0.0048 0.033898,-0.014949 0,-0.019744 0.011441,-0.032803 0.025424,-0.029018 0.044094,0.011934 0.2796611,-0.086944 0.2796611,-0.1173859 0,-0.015999 0.011592,-0.021925 0.02576,-0.013169 0.014168,0.00876 0.078998,-0.00786 0.1440678,-0.036931 0.065069,-0.029068 0.1364661,-0.05673 0.158659,-0.061471 0.071841,-0.015346 0.2976614,-0.091338 0.3325305,-0.1119027 0.018644,-0.010995 0.064407,-0.024424 0.1016949,-0.029841 0.037288,-0.00542 0.090678,-0.019603 0.1186441,-0.031524 0.062421,-0.026608 0.1312766,-0.045242 0.220339,-0.059628 0.037288,-0.00602 0.067797,-0.014169 0.067797,-0.018102 0,-0.00393 0.030508,-0.012397 0.067797,-0.018809 0.037288,-0.00641 0.1211864,-0.021157 0.1864407,-0.032766 0.065254,-0.01161 0.1567796,-0.027809 0.2033898,-0.035999 0.4767414,-0.083762 1.8198719,-0.082546 2.2033898,0.00199 0.04661,0.010274 0.1305085,0.026715 0.1864407,0.036535 0.2035444,0.035735 0.2197092,0.039216 0.4661017,0.1003721 0.041949,0.010412 0.099153,0.024499 0.1271187,0.031305 0.027966,0.00681 0.054661,0.015448 0.059322,0.019205 0.00466,0.00376 0.019915,0.010055 0.033898,0.013996 0.013983,0.00394 0.048305,0.015637 0.076271,0.025991 0.02797,0.010354 0.188135,0.067453 0.355932,0.1268858 0.167797,0.059433 0.37528,0.1447035 0.461073,0.1894899 0.08579,0.044786 0.165879,0.07154 0.177966,0.059452 0.01209,-0.012088 0.02198,-0.00328 0.02198,0.019571 0,0.022852 0.01525,0.032121 0.0339,0.020598 0.01864,-0.011523 0.0339,-0.00667 0.0339,0.010774 0,0.017448 0.07893,0.065678 0.175394,0.1071772 0.09647,0.041499 0.196709,0.096767 0.222761,0.1228185 0.02605,0.026051 0.06916,0.047366 0.09579,0.047366 0.02664,0 0.04843,0.015254 0.04843,0.033898 0,0.018644 0.01589,0.033898 0.03532,0.033898 0.01942,0 0.06806,0.030509 0.108087,0.067797 0.04002,0.037288 0.09278,0.067797 0.117227,0.067797 0.02445,0 0.04446,0.015254 0.04446,0.033898 0,0.018644 0.02125,0.033898 0.04722,0.033898 0.02597,0 0.056,0.022881 0.06673,0.050848 0.01073,0.027966 0.03524,0.050847 0.05447,0.050847 0.01923,0 0.0639,0.026695 0.09926,0.059322 0.03537,0.032627 0.111192,0.097458 0.168502,0.1440678 0.169434,0.1378016 0.861763,0.8261009 0.953637,0.9480874 0.04661,0.061887 0.11144,0.1408339 0.144068,0.1754375 0.03263,0.034604 0.05932,0.074512 0.05932,0.088686 0,0.014174 0.03773,0.066459 0.08384,0.1161899 0.189458,0.2043227 0.600823,0.945519 0.800747,1.4427857 0.01687,0.041949 0.04591,0.1105933 0.06453,0.1525424 0.06044,0.1361105 0.166323,0.4661017 0.149552,0.4661017 -0.009,0 -0.0013,0.028148 0.01716,0.062553 0.0318,0.059414 0.04835,0.1226376 0.08791,0.3357525 0.0095,0.051271 0.02682,0.1313559 0.03846,0.1779661 0.01164,0.04661 0.02538,0.1152542 0.03055,0.1525424 0.0052,0.037288 0.01841,0.1288135 0.02943,0.2033898 0.01102,0.074576 0.02918,0.2042373 0.04035,0.2881356 0.02768,0.20798 0.02937,1.3666725 0.0023,1.5762712 -0.04379,0.3389902 -0.07141,0.5132654 -0.104788,0.6610169 -0.01053,0.04661 -0.0269,0.1190678 -0.03637,0.161017 -0.03813,0.1687996 -0.04652,0.1985502 -0.08118,0.2881356 -0.01984,0.051271 -0.02695,0.093221 -0.01581,0.093221 0.01114,0 0.0013,0.02288 -0.02194,0.05085 -0.02321,0.02797 -0.03084,0.05085 -0.01695,0.05085 0.01389,0 0.0063,0.02288 -0.01695,0.05085 -0.02321,0.02797 -0.03084,0.05085 -0.01695,0.05085 0.01389,0 0.0063,0.02288 -0.01695,0.05085 -0.02321,0.02797 -0.03084,0.05085 -0.01695,0.05085 0.01389,0 0.0063,0.02288 -0.01695,0.05085 -0.02321,0.02797 -0.03235,0.05085 -0.02032,0.05085 0.01203,0 -0.0031,0.03814 -0.03365,0.08475 -0.03054,0.04661 -0.04579,0.08475 -0.0339,0.08475 0.0119,0 -0.0034,0.03813 -0.0339,0.08475 -0.03054,0.04661 -0.04233,0.08498 -0.0262,0.08526 0.01613,2.72e-4 0.01407,0.01173 -0.0046,0.02542 -0.01864,0.0137 -0.102384,0.16982 -0.18609,0.346939 -0.08371,0.177118 -0.179045,0.358413 -0.211865,0.402876 -0.03282,0.04446 -0.05967,0.101667 -0.05967,0.127119 0,0.02545 -0.01525,0.04628 -0.0339,0.04628 -0.01864,0 -0.0339,0.02288 -0.0339,0.05085 0,0.02797 -0.01525,0.05085 -0.0339,0.05085 -0.01864,0 -0.0339,0.02288 -0.0339,0.05085 0,0.02797 -0.01525,0.05085 -0.0339,0.05085 -0.01864,0 -0.0339,0.01592 -0.0339,0.03538 0,0.01946 -0.03813,0.07651 -0.08474,0.126773 -0.04661,0.05027 -0.08475,0.106949 -0.08475,0.125959 0,0.01901 -0.03051,0.05362 -0.0678,0.07691 -0.03729,0.02329 -0.0678,0.05677 -0.0678,0.07441 0,0.01764 -0.03432,0.06865 -0.07627,0.113355 -0.213412,0.22744 -0.855546,0.864701 -0.945924,0.938746 -0.05689,0.04661 -0.129726,0.108793 -0.161855,0.138183 -0.03213,0.02939 -0.08395,0.06323 -0.11515,0.07521 -0.0312,0.01197 -0.05673,0.0375 -0.05673,0.05673 0,0.01923 -0.02288,0.03496 -0.05085,0.03496 -0.02797,0 -0.05085,0.01525 -0.05085,0.0339 0,0.01864 -0.02001,0.0339 -0.04446,0.0339 -0.02445,0 -0.0772,0.03051 -0.117227,0.0678 -0.04002,0.03729 -0.08866,0.0678 -0.108087,0.0678 -0.01942,0 -0.03532,0.01525 -0.03532,0.0339 0,0.01864 -0.02055,0.0339 -0.04566,0.0339 -0.02511,0 -0.08084,0.03051 -0.123831,0.0678 -0.04299,0.03729 -0.09322,0.0678 -0.111607,0.0678 -0.01839,0 -0.103768,0.04301 -0.189729,0.09557 -0.261049,0.159631 -1.088643,0.492186 -1.190189,0.478257 -0.0093,-0.0013 -0.062712,0.01536 -0.1186447,0.03697 -0.1044997,0.04038 -0.1744891,0.05911 -0.3220339,0.08621 -0.04661,0.0086 -0.1228813,0.02524 -0.1694915,0.03706 -0.04661,0.01182 -0.1076271,0.0253 -0.1355932,0.02995 -0.027966,0.0046 -0.1118644,0.01894 -0.1864407,0.03176 -0.074576,0.01282 -0.1813559,0.03088 -0.2372881,0.04013 -0.1382004,0.02286 -1.4977763,0.04485 -1.5180716,0.02455 z"
     id="path11"
     inkscape:connector-curvature="0" />
  <path
     style="opacity:1;fill:#ffffff;fill-opacity:1;stroke:#000000;stroke-width:0;stroke-linecap:round;stroke-linejoin:round;stroke-miterlimit:4;stroke-dasharray:none;stroke-opacity:1"
     d="M 6.2714589,14.779818 C 0.88503876,13.325329 -0.79692309,6.6799279 3.2619674,2.8893717 5.4294348,0.86519616 8.606,0.45038019 11.281196,1.8421702 c 1.365941,0.710641 2.609063,2.0831151 3.196725,3.5293607 1.612091,3.9673794 -0.746878,8.4939171 -4.9159767,9.4330861 -0.919301,0.20709 -2.4751535,0.195364 -3.2904854,-0.0248 z"
     id="path10"
     inkscape:connector-curvature="0" />
  <path
     style="opacity:1;fill:#cccccc;fill-opacity:1;stroke:#000000;stroke-width:0;stroke-linecap:round;stroke-linejoin:round;stroke-miterlimit:4;stroke-dasharray:none;stroke-opacity:1"
     d="M 6.9156805,14.931369 C 5.4354944,14.690151 4.1209947,14.01404 3.0479871,12.942029 2.0666503,11.961602 1.4202729,10.765699 1.1224814,9.3795298 0.98158438,8.7236775 0.97004848,7.3830922 1.0997298,6.7355675 1.6750627,3.862816 3.7817771,1.7275039 6.6439554,1.116082 7.2287303,0.99116166 8.7985937,0.99258079 9.3765036,1.118552 c 2.5944644,0.5655349 4.6308384,2.435543 5.3483024,4.9113634 0.194109,0.6698291 0.264476,1.1787168 0.266371,1.9263684 0.0031,1.2166681 -0.194345,2.0727562 -0.724147,3.1400342 -0.183241,0.369133 -0.461414,0.841345 -0.618164,1.049359 -1.06722,1.41625 -2.521889,2.353851 -4.214883,2.716687 -0.6168262,0.132195 -1.9126596,0.167703 -2.5183025,0.06901 z"
     id="path28"
     inkscape:connector-curvature="0" />
  <path
     style="opacity:1;fill:#cccccc;fill-opacity:1;stroke:#0055d4;stroke-width:0;stroke-linecap:round;stroke-linejoin:round;stroke-miterlimit:4;stroke-dasharray:none;stroke-opacity:1"
     d="M 7.6096163,15.990717 C 6.1887723,15.933587 4.7527168,15.460142 3.5467485,14.651253 2.9872344,14.275966 2.2790248,13.638811 1.8619863,13.135524 0.86524987,11.932651 0.27988686,10.595021 0.05528596,9.0069793 0.02023456,8.7591482 0.01145689,8.5506519 0.01239827,7.9882662 0.0136876,7.2180111 0.0365688,6.9768813 0.16820319,6.3463402 0.74228072,3.5964554 2.7595707,1.3246035 5.4331472,0.41701184 5.9952841,0.22618479 6.6259308,0.09118619 7.2380856,0.03063994 7.5871121,-0.00388114 8.4155809,-0.00454422 8.7601629,0.02942172 11.187718,0.26870925 13.343422,1.5695275 14.689482,3.6073554 16.24582,5.9635256 16.43431,8.985641 15.183233,11.5238 14.104967,13.711364 12.1123,15.283883 9.7482541,15.812829 9.0898274,15.96015 8.3597281,16.020878 7.6096163,15.990717 Z M 8.9878753,14.92857 C 11.37644,14.592429 13.445455,13.014521 14.413298,10.79094 15.078783,9.262015 15.178016,7.5364999 14.691647,5.9508398 13.965442,3.5832618 12.054788,1.7908754 9.6110881,1.1847612 9.1853223,1.079158 8.7921335,1.0340686 8.1729048,1.0198358 7.1168183,0.99556212 6.3249867,1.1339992 5.4044094,1.503856 3.3129493,2.3441337 1.7697736,4.1081083 1.2100034,6.2984008 1.0516074,6.9181794 0.99063716,7.5159035 1.0131804,8.2279634 c 0.023846,0.7532221 0.1151397,1.27763 0.340087,1.9535326 0.3570632,1.072872 0.907456,1.965952 1.7000618,2.758558 0.9901046,0.990104 2.2290283,1.65622 3.5854468,1.927739 0.1911952,0.03827 0.4554913,0.08001 0.5873248,0.09276 0.3538844,0.03421 1.4302411,0.01467 1.7617745,-0.03198 z"
     id="path821"
     inkscape:connector-curvature="0" />
</svg>
