<?xml version="1.0" encoding="UTF-8" standalone="no"?>
<svg
   xmlns:dc="http://purl.org/dc/elements/1.1/"
   xmlns:cc="http://creativecommons.org/ns#"
   xmlns:rdf="http://www.w3.org/1999/02/22-rdf-syntax-ns#"
   xmlns:svg="http://www.w3.org/2000/svg"
   xmlns="http://www.w3.org/2000/svg"
   xmlns:sodipodi="http://sodipodi.sourceforge.net/DTD/sodipodi-0.dtd"
   xmlns:inkscape="http://www.inkscape.org/namespaces/inkscape"
   width="1em"
   height="1em"
   viewBox="0 0 16 16"
   class="bi bi-trash"
   fill="currentColor"
   version="1.1"
   id="svg6"
   sodipodi:docname="trash.svg"
   inkscape:version="0.92.5 (2060ec1f9f, 2020-04-08)">
  <metadata
     id="metadata12">
    <rdf:RDF>
      <cc:Work
         rdf:about="">
        <dc:format>image/svg+xml</dc:format>
        <dc:type
           rdf:resource="http://purl.org/dc/dcmitype/StillImage" />
        <dc:title />
      </cc:Work>
    </rdf:RDF>
  </metadata>
  <defs
     id="defs10" />
  <sodipodi:namedview
     pagecolor="#ffffff"
     bordercolor="#666666"
     borderopacity="1"
     objecttolerance="10"
     gridtolerance="10"
     guidetolerance="10"
     inkscape:pageopacity="0"
     inkscape:pageshadow="2"
     inkscape:window-width="1920"
     inkscape:window-height="1001"
     id="namedview8"
     showgrid="false"
     inkscape:zoom="32"
     inkscape:cx="3.800563"
     inkscape:cy="12.147114"
     inkscape:window-x="-9"
     inkscape:window-y="-9"
     inkscape:window-maximized="1"
     inkscape:current-layer="svg6" />
  <path
     d="M5.5 5.5A.5.5 0 0 1 6 6v6a.5.5 0 0 1-1 0V6a.5.5 0 0 1 .5-.5zm2.5 0a.5.5 0 0 1 .5.5v6a.5.5 0 0 1-1 0V6a.5.5 0 0 1 .5-.5zm3 .5a.5.5 0 0 0-1 0v6a.5.5 0 0 0 1 0V6z"
     id="path2" />
  <path
     fill-rule="evenodd"
     d="M14.5 3a1 1 0 0 1-1 1H13v9a2 2 0 0 1-2 2H5a2 2 0 0 1-2-2V4h-.5a1 1 0 0 1-1-1V2a1 1 0 0 1 1-1H6a1 1 0 0 1 1-1h2a1 1 0 0 1 1 1h3.5a1 1 0 0 1 1 1v1zM4.118 4L4 4.059V13a1 1 0 0 0 1 1h6a1 1 0 0 0 1-1V4.059L11.882 4H4.118zM2.5 3V2h11v1h-11z"
     id="path4" />
  <path
     style="fill:#ffffff;fill-opacity:1;stroke:#000000;stroke-width:0;stroke-linecap:round;stroke-linejoin:round;stroke-miterlimit:4;stroke-dasharray:none;stroke-opacity:1"
     d="M 4.5800584,14.950267 C 3.8439691,14.787353 3.2601458,14.222104 3.0626768,13.481159 L 3.0126195,13.293334 3.0062732,8.6503236 2.999927,4.0073131 2.6522991,3.9957729 C 2.1946063,3.9805792 2.0540144,3.9332565 1.8220208,3.7163049 1.7066608,3.6084247 1.6251015,3.4857673 1.563522,3.3275477 1.5152177,3.2034366 1.5113522,3.158256 1.5030253,2.6204409 1.4980284,2.2977002 1.5039465,1.975346 1.5165294,1.8848872 1.5794161,1.4327934 1.9260187,1.0815187 2.3709625,1.0189365 2.4615849,1.0061902 3.2444229,0.99699921 4.2612898,0.99674277 l 1.7356477,-4.3772e-4 0.026652,-0.15542293 c 0.0705,-0.41112439 0.3911065,-0.73931603 0.7975232,-0.81639137 0.166466,-0.03156963 2.2182276,-0.03002083 2.3712375,0.00179 0.4045031,0.08409632 0.7503086,0.45293454 0.7851773,0.8374753 l 0.012019,0.13254904 1.7370775,6.8236e-4 c 0.96455,3.7874e-4 1.808984,0.0100197 1.898767,0.0216779 0.405101,0.052603 0.72844,0.3388958 0.835742,0.7399893 0.04235,0.1582969 0.0417,1.3244065 -8.22e-4,1.48412 -0.102772,0.3859921 -0.420309,0.6748978 -0.808785,0.7358608 -0.079,0.012397 -0.26047,0.022615 -0.403272,0.022707 l -0.259641,1.669e-4 v 4.6081742 c 0,5.0710466 0.0086,4.7446436 -0.134113,5.1145436 -0.09394,0.243544 -0.209957,0.427007 -0.394481,0.623786 -0.260607,0.277914 -0.54252,0.454186 -0.91956,0.574976 l -0.153886,0.0493 -3.3366597,0.0037 c -2.710822,0.003 -3.3616429,-0.0018 -3.4698554,-0.02575 z m 6.6356866,-0.972092 c 0.417736,-0.09849 0.723679,-0.434456 0.778236,-0.854607 0.01264,-0.09732 0.02127,-1.931611 0.02168,-4.6074762 l 6.82e-4,-4.4457856 -0.04911,-0.034399 c -0.044,-0.030818 -0.455566,-0.034399 -3.9543388,-0.034399 -2.9165196,0 -3.9194774,0.00649 -3.9615105,0.025644 l -0.056282,0.025644 v 4.5327619 c 0,4.0010819 0.00397,4.5480159 0.033873,4.6628079 0.094158,0.361497 0.3987813,0.655091 0.7605468,0.73301 0.091578,0.01972 0.9027681,0.02679 3.2051531,0.02793 2.6462684,0.0013 3.1021494,-0.0031 3.2210734,-0.03114 z M 13.496846,2.498907 V 1.990674 H 7.9946711 2.4924964 V 2.498907 3.00714 h 5.5021747 5.5021749 z"
     id="path908"
     inkscape:connector-curvature="0" />
  <path
     style="opacity:0.01000001;fill:#ffffff;fill-opacity:1;stroke:#000000;stroke-width:0;stroke-linecap:round;stroke-linejoin:round;stroke-miterlimit:4;stroke-dasharray:none;stroke-opacity:1"
     d="m 10.283647,12.441885 c -0.12026,-0.06001 -0.158301,-0.09893 -0.222407,-0.227578 l -0.05573,-0.111845 1.23e-4,-3.0837287 c 8.5e-5,-2.1227671 0.0075,-3.1102727 0.02377,-3.168907 0.04978,-0.179267 0.275647,-0.3457155 0.469135,-0.3457155 0.175657,0 0.35443,0.1105461 0.44121,0.2728267 l 0.04908,0.091775 0.0058,3.0813659 c 0.0064,3.4026206 0.01314,3.2310816 -0.13203,3.3802976 -0.149669,0.153845 -0.398209,0.201713 -0.578978,0.111509 z"
     id="path910"
     inkscape:connector-curvature="0" />
  <path
     style="opacity:0.01000001;fill:#ffffff;fill-opacity:1;stroke:#000000;stroke-width:0;stroke-linecap:round;stroke-linejoin:round;stroke-miterlimit:4;stroke-dasharray:none;stroke-opacity:1"
     d="m 10.275173,12.439763 c -0.103305,-0.05113 -0.182948,-0.141752 -0.235838,-0.268336 -0.02983,-0.07139 -0.03381,-0.445092 -0.03371,-3.1586939 8.5e-5,-2.1185041 0.0075,-3.1042761 0.02377,-3.1629068 0.04978,-0.179267 0.275647,-0.3457155 0.469135,-0.3457155 0.175657,0 0.35443,0.1105461 0.44121,0.2728267 l 0.04908,0.091775 0.0058,3.0813659 c 0.0064,3.4026206 0.01314,3.2310816 -0.13203,3.3802976 -0.152493,0.156748 -0.39903,0.202655 -0.587452,0.109387 z"
     id="path912"
     inkscape:connector-curvature="0" />
  <path
     style="opacity:0.01000001;fill:#ffffff;fill-opacity:1;stroke:#000000;stroke-width:0;stroke-linecap:round;stroke-linejoin:round;stroke-miterlimit:4;stroke-dasharray:none;stroke-opacity:1"
     d="m 5.0018964,8.5214476 c 1.593e-4,-1.4120605 0.00148,-2.575293 0.00293,-2.5849609 l 0.00264,-0.017578 0.4926182,-9.915e-4 0.4926181,-9.915e-4 0.00247,0.020523 c 0.00136,0.011287 0.00248,1.1749661 0.0025,2.5859524 l 3.39e-5,2.5654289 H 5.4996538 5.0016069 Z"
     id="path914"
     inkscape:connector-curvature="0" />
  <path
     style="opacity:0.01000001;fill:#ffffff;fill-opacity:1;stroke:#000000;stroke-width:0;stroke-linecap:round;stroke-linejoin:round;stroke-miterlimit:4;stroke-dasharray:none;stroke-opacity:1"
     d="M 5.2902356,12.447893 C 5.1789267,12.395834 5.0676827,12.270741 5.0363055,12.16235 5.0192775,12.103528 5.014125,11.161102 5.0187359,8.9487581 l 0.00652,-3.1303619 0.066669,-0.094854 c 0.087085,-0.1239021 0.2636997,-0.218305 0.4084188,-0.218305 0.1447225,0 0.3213348,0.094403 0.4084188,0.2183084 l 0.066669,0.094858 V 8.99457 12.170737 l -0.060956,0.09211 c -0.095262,0.14395 -0.2152499,0.211614 -0.3895925,0.2197 -0.1076408,0.005 -0.1693783,-0.0041 -0.234651,-0.03465 z"
     id="path916"
     inkscape:connector-curvature="0" />
  <path
     style="opacity:0.01000001;fill:#ffffff;fill-opacity:1;stroke:#000000;stroke-width:0;stroke-linecap:round;stroke-linejoin:round;stroke-miterlimit:4;stroke-dasharray:none;stroke-opacity:1"
     d="M 5.2902356,12.446706 C 5.1795193,12.396408 5.0678671,12.271378 5.0363055,12.16235 5.0192775,12.103528 5.014125,11.161102 5.0187359,8.9487581 l 0.00652,-3.1303619 0.066669,-0.094854 c 0.087085,-0.1239021 0.2636997,-0.218305 0.4084188,-0.218305 0.1447192,0 0.3213341,0.094403 0.4084188,0.218305 l 0.066669,0.094854 0.00606,3.1414104 c 0.00675,3.4970284 0.016966,3.2559364 -0.1439948,3.3972614 -0.043902,0.03855 -0.1125434,0.08376 -0.1525355,0.100467 -0.1012619,0.04231 -0.2891014,0.03716 -0.3947296,-0.01083 z"
     id="path918"
     inkscape:connector-curvature="0" />
  <path
     style="opacity:0.01000001;fill:#ffffff;fill-opacity:1;stroke:#000000;stroke-width:0;stroke-linecap:round;stroke-linejoin:round;stroke-miterlimit:4;stroke-dasharray:none;stroke-opacity:1"
     d="M 5.2902356,12.446706 C 5.1795193,12.396408 5.0678671,12.271378 5.0363055,12.16235 5.0192775,12.103528 5.014125,11.161102 5.0187359,8.9487581 l 0.00652,-3.1303619 0.066669,-0.094854 c 0.087085,-0.1239021 0.2636997,-0.218305 0.4084188,-0.218305 0.1447192,0 0.3213341,0.094403 0.4084188,0.218305 l 0.066669,0.094854 0.00606,3.1414104 c 0.00675,3.4970284 0.016966,3.2559364 -0.1439948,3.3972614 -0.043902,0.03855 -0.1125434,0.08376 -0.1525355,0.100467 -0.1012619,0.04231 -0.2891014,0.03716 -0.3947296,-0.01083 z"
     id="path920"
     inkscape:connector-curvature="0" />
  <path
     style="opacity:0.01000001;fill:#ffffff;fill-opacity:1;stroke:#000000;stroke-width:0;stroke-linecap:round;stroke-linejoin:round;stroke-miterlimit:4;stroke-dasharray:none;stroke-opacity:1"
     d="M 5.2902356,12.446706 C 5.1795193,12.396408 5.0678671,12.271378 5.0363055,12.16235 5.0192775,12.103528 5.014125,11.161102 5.0187359,8.9487581 l 0.00652,-3.1303619 0.066428,-0.095813 c 0.085217,-0.1229131 0.263398,-0.2173467 0.4100984,-0.2173467 0.1432051,0 0.3203169,0.095003 0.4069797,0.218305 l 0.066669,0.094854 0.00606,3.1414104 c 0.00675,3.4970281 0.016966,3.2559361 -0.1439948,3.3972611 -0.043902,0.03855 -0.1125434,0.08376 -0.1525355,0.100467 -0.1012619,0.04231 -0.2891014,0.03716 -0.3947296,-0.01083 z"
     id="path922"
     inkscape:connector-curvature="0" />
  <path
     style="opacity:0.01000001;fill:#ffffff;fill-opacity:1;stroke:#000000;stroke-width:0;stroke-linecap:round;stroke-linejoin:round;stroke-miterlimit:4;stroke-dasharray:none;stroke-opacity:1"
     d="M 5.2902356,12.446706 C 5.1795193,12.396408 5.0678671,12.271378 5.0363055,12.16235 5.0192775,12.103528 5.014125,11.161102 5.0187359,8.9487581 l 0.00652,-3.1303619 0.066428,-0.095813 c 0.085217,-0.1229131 0.263398,-0.2173467 0.4100984,-0.2173467 0.1432051,0 0.3203169,0.095003 0.4069797,0.218305 l 0.066669,0.094854 0.00652,3.1303619 c 0.00461,2.2123436 -5.416e-4,3.1547696 -0.01757,3.2135916 -0.054737,0.189087 -0.2484605,0.324596 -0.464042,0.324596 -0.070395,0 -0.158806,-0.01693 -0.2101118,-0.04024 z"
     id="path924"
     inkscape:connector-curvature="0" />
  <path
     style="opacity:0.01000001;fill:#ffffff;fill-opacity:1;stroke:#000000;stroke-width:0;stroke-linecap:round;stroke-linejoin:round;stroke-miterlimit:4;stroke-dasharray:none;stroke-opacity:1"
     d="M 5.2902356,12.446706 C 5.1795193,12.396408 5.0678671,12.271378 5.0363055,12.16235 5.0192775,12.103528 5.014125,11.161102 5.0187359,8.9487581 l 0.00652,-3.1303619 0.066428,-0.095813 c 0.085217,-0.1229131 0.263398,-0.2173467 0.4100984,-0.2173467 0.1432051,0 0.3203169,0.095003 0.4069797,0.218305 l 0.066669,0.094854 0.00652,3.1303619 C 5.986281,11.02441 5.980901,12.105177 5.966003,12.156459 5.93442,12.265154 5.8179216,12.397902 5.7118251,12.44609 c -0.1162992,0.05282 -0.3060683,0.0531 -0.4215973,6.14e-4 z"
     id="path926"
     inkscape:connector-curvature="0" />
  <path
     style="opacity:1;fill:#ffffff;fill-opacity:1;stroke:#000000;stroke-width:0;stroke-linecap:round;stroke-linejoin:round;stroke-miterlimit:4;stroke-dasharray:none;stroke-opacity:1"
     d="M 5.2271864,12.426217 C 5.1697146,12.387487 5.0938069,12.306627 5.0585026,12.246529 4.9949005,12.138261 4.994313,12.108519 4.994313,8.9966357 V 5.8560107 L 5.0677746,5.7378518 C 5.2557781,5.4354587 5.6869252,5.4168893 5.9042561,5.7018249 l 0.090057,0.1180707 v 3.1798285 c 0,3.1774659 -5e-5,3.1798939 -0.065373,3.2680579 -0.1727046,0.233085 -0.4860145,0.303821 -0.7017537,0.158435 z"
     id="path1024"
     inkscape:connector-curvature="0" />
  <path
     style="opacity:1;fill:#ffffff;fill-opacity:1;stroke:#000000;stroke-width:0;stroke-linecap:round;stroke-linejoin:round;stroke-miterlimit:4;stroke-dasharray:none;stroke-opacity:1"
     d="M 7.7646016,12.443621 C 7.7070104,12.415245 7.6226354,12.335733 7.5771017,12.266927 L 7.494313,12.141825 V 8.9989179 5.8560107 L 7.567775,5.7378518 c 0.2074688,-0.3337021 0.7010876,-0.3100037 0.8808131,0.042287 0.061091,0.1197485 0.062083,0.1796659 0.05398,3.2607099 -0.00823,3.1293813 -0.00845,3.1389833 -0.073628,3.2269413 -0.1624141,0.219177 -0.4317051,0.29045 -0.6643385,0.175831 z"
     id="path1026"
     inkscape:connector-curvature="0" />
  <path
     style="opacity:1;fill:#ffffff;fill-opacity:1;stroke:#000000;stroke-width:0;stroke-linecap:round;stroke-linejoin:round;stroke-miterlimit:4;stroke-dasharray:none;stroke-opacity:1"
     d="M 10.266455,12.444518 C 10.136407,12.380428 10.050295,12.271511 10.009303,12.119277 9.988085,12.040477 9.980105,10.958816 9.98576,8.9280445 L 9.99431,5.8560107 10.067772,5.7378518 c 0.101796,-0.1637339 0.284437,-0.2523125 0.481251,-0.2334011 0.18065,0.017358 0.294185,0.093201 0.390333,0.2607481 l 0.07005,0.1220619 -0.0075,3.1461541 c -0.0075,3.1374732 -0.0077,3.1463972 -0.07292,3.2343752 -0.161908,0.218493 -0.43171,0.290467 -0.662485,0.176728 z"
     id="path1028"
     inkscape:connector-curvature="0" />
</svg>
