<?xml version="1.0" encoding="UTF-8" standalone="no"?>
<svg
   xmlns:dc="http://purl.org/dc/elements/1.1/"
   xmlns:cc="http://creativecommons.org/ns#"
   xmlns:rdf="http://www.w3.org/1999/02/22-rdf-syntax-ns#"
   xmlns:svg="http://www.w3.org/2000/svg"
   xmlns="http://www.w3.org/2000/svg"
   xmlns:sodipodi="http://sodipodi.sourceforge.net/DTD/sodipodi-0.dtd"
   xmlns:inkscape="http://www.inkscape.org/namespaces/inkscape"
   width="161mm"
   height="157mm"
   viewBox="0 0 161 157"
   version="1.1"
   id="svg821"
   inkscape:version="0.92.5 (2060ec1f9f, 2020-04-08)"
   sodipodi:docname="animate.svg">
  <defs
     id="defs815" />
  <sodipodi:namedview
     id="base"
     pagecolor="#ffffff"
     bordercolor="#666666"
     borderopacity="1.0"
     inkscape:pageopacity="0.0"
     inkscape:pageshadow="2"
     inkscape:zoom="0.35"
     inkscape:cx="-73.863807"
     inkscape:cy="28.657243"
     inkscape:document-units="mm"
     inkscape:current-layer="layer1"
     showgrid="false"
     inkscape:window-width="1920"
     inkscape:window-height="1001"
     inkscape:window-x="-9"
     inkscape:window-y="-9"
     inkscape:window-maximized="1" />
  <metadata
     id="metadata818">
    <rdf:RDF>
      <cc:Work
         rdf:about="">
        <dc:format>image/svg+xml</dc:format>
        <dc:type
           rdf:resource="http://purl.org/dc/dcmitype/StillImage" />
        <dc:title></dc:title>
      </cc:Work>
    </rdf:RDF>
  </metadata>
  <g
     inkscape:label="Vrstva 1"
     inkscape:groupmode="layer"
     id="layer1"
     transform="translate(0,-140)">
    <g
       id="g917"
       transform="translate(-3.7149114,36.148146)">
      <g
         transform="translate(1.889881,25.324405)"
         id="grid">
        <path
           inkscape:connector-curvature="0"
           d="m 16.47963,209.20877 c -1.558661,0 -2.822311,-1.26365 -2.822311,-2.82231 V 82.208774 c 2.65e-4,-1.55866 1.26365,-2.82231 2.822311,-2.82231 1.55866,0 2.82231,1.26365 2.82231,2.82231 V 206.38646 c 0,1.55866 -1.26365,2.82231 -2.82231,2.82231 z"
           id="path4-5"
           style="stroke-width:0.26458332" />
        <path
           inkscape:connector-curvature="0"
           d="m 50.346297,209.20877 c -1.558661,0 -2.822311,-1.26365 -2.822311,-2.82231 V 82.208774 c 2.65e-4,-1.55866 1.26365,-2.82231 2.822311,-2.82231 1.55866,0 2.82231,1.26365 2.82231,2.82231 V 206.38646 c 0,1.55866 -1.26365,2.82231 -2.82231,2.82231 z"
           id="path6"
           style="stroke-width:0.26458332" />
        <path
           inkscape:connector-curvature="0"
           d="m 84.212963,209.20877 c -1.55866,0 -2.82231,-1.26365 -2.82231,-2.82231 V 82.208774 c 2.64e-4,-1.55866 1.26365,-2.82231 2.82231,-2.82231 1.558661,0 2.822311,1.26365 2.822311,2.82231 V 206.38646 c 0,1.55866 -1.26365,2.82231 -2.822311,2.82231 z"
           id="path8"
           style="stroke-width:0.26458332" />
        <path
           inkscape:connector-curvature="0"
           d="m 118.07963,209.20877 c -1.55866,0 -2.82231,-1.26365 -2.82231,-2.82231 V 82.208774 c 2.7e-4,-1.55866 1.26365,-2.82231 2.82231,-2.82231 1.55866,0 2.82231,1.26365 2.82231,2.82231 V 206.38646 c 0,1.55866 -1.26365,2.82231 -2.82231,2.82231 z"
           id="path10"
           style="stroke-width:0.26458332" />
        <path
           inkscape:connector-curvature="0"
           d="M 129.36861,197.91979 H 5.1909173 c -1.5586604,0 -2.8223104,-1.26365 -2.8223104,-2.82231 0,-1.55866 1.26365,-2.82231 2.8223104,-2.82231 H 129.36861 c 1.55866,0 2.82231,1.26365 2.82231,2.82231 0,1.55866 -1.26365,2.82231 -2.82231,2.82231 z"
           id="path12"
           style="stroke-width:0.26458332" />
        <path
           inkscape:connector-curvature="0"
           d="M 129.36861,164.05313 H 5.1909173 c -1.5586604,0 -2.8223104,-1.26365 -2.8223104,-2.82231 0,-1.55866 1.26365,-2.82231 2.8223104,-2.82231 H 129.36861 c 1.55866,0 2.82231,1.26365 2.82231,2.82231 0,1.55866 -1.26365,2.82231 -2.82231,2.82231 z"
           id="path14"
           style="stroke-width:0.26458332" />
        <path
           inkscape:connector-curvature="0"
           d="M 129.36861,130.18646 H 5.1909173 c -1.5586604,0 -2.8223104,-1.26365 -2.8223104,-2.82231 0,-1.55866 1.26365,-2.82231 2.8223104,-2.82231 H 129.36861 c 1.55866,0 2.82231,1.26365 2.82231,2.82231 0,1.55866 -1.26365,2.82231 -2.82231,2.82231 z"
           id="path16"
           style="stroke-width:0.26458332" />
        <path
           inkscape:connector-curvature="0"
           d="M 129.36861,96.319794 H 5.1909173 c -1.5586604,0 -2.8223104,-1.26365 -2.8223104,-2.82231 0,-1.55866 1.26365,-2.82231 2.8223104,-2.82231 H 129.36861 c 1.55866,0 2.82231,1.26365 2.82231,2.82231 0,1.55866 -1.26365,2.82231 -2.82231,2.82231 z"
           id="path18"
           style="stroke-width:0.26458332" />
      </g>
      <g
         style="opacity:0.831;fill:#000000;fill-opacity:1"
         transform="translate(3.96875,0.37797619)"
         id="stones">
        <ellipse
           style="fill:#000000;fill-opacity:1;stroke:#000000;stroke-width:0.22893283;stroke-opacity:1"
           id="path3769"
           cx="118.54695"
           cy="184.81935"
           rx="18.668638"
           ry="18.533751" />
        <ellipse
           style="fill:#000000;fill-opacity:1;stroke:#000000;stroke-width:0.22893283;stroke-opacity:1"
           id="path3769-6"
           cx="81.127312"
           cy="185.38632"
           rx="18.668638"
           ry="18.533751" />
        <ellipse
           style="fill:#000000;fill-opacity:1;stroke:#000000;stroke-width:0.22893283;stroke-opacity:1"
           id="path3769-2"
           cx="81.784485"
           cy="221.89726"
           rx="18.668638"
           ry="18.533751" />
      </g>
      <g
         transform="translate(-31.397371,-29.666093)"
         id="g858">
        <g
           style="fill:#000000;fill-opacity:1;stroke:none"
           transform="matrix(0.01572502,0,0,-0.01498592,124.392,290.83804)"
           id="cursor">
          <path
             inkscape:connector-curvature="0"
             d="m 2157,5110 c -106,-19 -213,-93 -274,-187 -72,-114 -67,-6 -70,-1435 l -4,-1288 -308,155 c -340,170 -397,192 -504,201 -280,24 -492,-194 -455,-469 17,-129 3,-113 743,-856 749,-752 864,-863 988,-945 400,-266 882,-350 1310,-230 430,121 788,466 932,897 70,212 68,176 72,1254 3,605 1,998 -6,1043 -39,287 -337,455 -597,336 -31,-14 -58,-26 -59,-26 -2,0 -13,20 -25,44 -63,132 -228,236 -373,236 -64,0 -160,-24 -206,-51 -18,-11 -35,-19 -36,-17 -1,2 -13,23 -25,47 -29,58 -110,143 -168,177 -60,35 -133,54 -212,54 -67,0 -165,-21 -183,-39 -6,-6 -14,-11 -18,-11 -4,0 -9,177 -11,393 -4,355 -6,396 -23,437 -51,123 -146,220 -253,260 -62,23 -167,32 -235,20 z m 178,-228 c 40,-19 73,-50 93,-87 15,-27 17,-129 22,-1095 5,-1157 2,-1089 61,-1124 48,-28 104,-15 136,33 16,24 18,71 23,556 6,588 2,560 74,623 104,91 270,54 327,-73 17,-37 19,-78 19,-536 0,-273 3,-510 6,-528 19,-92 139,-119 191,-42 16,24 18,63 23,451 4,376 7,429 22,456 26,47 73,82 134,100 49,14 59,14 108,0 67,-20 113,-57 137,-111 17,-37 19,-73 19,-435 0,-246 4,-409 11,-433 7,-26 21,-44 42,-57 38,-24 59,-25 101,-5 60,29 61,30 66,380 l 5,320 27,40 c 15,22 44,51 65,65 31,21 48,25 112,25 65,0 81,-4 113,-26 45,-31 71,-63 86,-108 9,-25 12,-297 12,-1015 0,-1025 -1,-1040 -44,-1191 C 4265,848 4139,652 3968,503 3745,310 3495,218 3194,219 c -331,0 -578,83 -864,290 -81,58 -1500,1465 -1548,1535 -23,34 -27,49 -27,112 0,66 3,76 31,111 44,55 95,78 172,76 35,-1 80,-7 100,-14 20,-6 216,-101 436,-210 219,-110 409,-199 422,-199 38,0 72,17 91,47 17,26 18,99 23,1413 l 5,1386 27,42 c 34,50 65,72 126,88 52,13 102,9 147,-14 z"
             id="path4"
             style="fill:#000000;fill-opacity:1" />
        </g>
        <path
           style="opacity:1;fill:#f9f9f9;fill-opacity:1;fill-rule:evenodd;stroke:#000000;stroke-width:1.07986498;stroke-linecap:round;stroke-linejoin:round;stroke-miterlimit:4;stroke-dasharray:none;stroke-opacity:1"
           d="m 645.40428,718.95826 c -16.64884,-2.72638 -31.4218,-10.11416 -44.57055,-22.28917 -43.80059,-40.5569 -83.65389,-78.88502 -84.74879,-81.50547 -3.85487,-9.22601 3.82268,-16.90947 14.58922,-14.60046 1.93207,0.41435 13.24731,5.28874 25.14497,10.83196 27.89013,12.99426 28.27241,13.14364 30.87628,12.06508 1.12752,-0.46704 2.43956,-1.52829 2.91562,-2.35834 0.65286,-1.13834 0.97688,-18.62225 1.31858,-71.15204 0.24917,-38.30357 0.49024,-73.74015 0.53572,-78.74794 l 0.0827,-9.10509 2.52395,-2.7937 c 4.76011,-5.26888 12.5887,-5.45833 18.06916,-0.43728 l 2.62118,2.40145 0.45805,31.66271 c 0.25192,17.41449 0.51216,43.71628 0.57829,58.44842 0.0661,14.73214 0.37476,28.33363 0.68584,30.22552 0.6731,4.09368 1.80689,5.39784 5.16665,5.94305 2.00456,0.3253 2.92103,0.048 4.5934,-1.3898 l 2.0892,-1.79618 0.73969,-30.95558 c 0.52501,-21.97123 0.99526,-31.41552 1.62028,-32.54031 0.48432,-0.8716 2.26898,-2.39839 3.96592,-3.39286 5.94857,-3.4861 13.92714,-1.67457 17.20573,3.90656 1.40074,2.38446 1.48483,3.86504 1.82552,32.14246 0.25699,21.33055 0.59986,30.06606 1.2227,31.15203 0.47606,0.83005 1.87223,1.92616 3.10261,2.4358 2.75987,1.14318 5.3399,0.35999 7.24485,-2.19923 1.2464,-1.67447 1.40249,-3.83382 1.88467,-26.07143 0.5942,-27.40412 0.47382,-26.83669 6.29081,-29.65264 5.88435,-2.84857 12.40917,-1.28782 16.28165,3.89461 1.4003,1.87397 1.49095,3.15378 1.84357,26.0273 0.25713,16.67986 0.63205,24.51919 1.2227,25.56559 1.07121,1.89782 4.65505,3.42342 6.78543,2.88848 4.95206,-1.24347 5.4479,-3.4663 5.507,-24.68738 l 0.0426,-15.28972 1.86845,-2.44966 c 2.8511,-3.73798 5.72907,-5.17943 10.34735,-5.18251 4.4116,-0.003 7.52177,1.58846 10.21852,5.22858 1.48766,2.00806 1.49425,2.27594 1.49425,60.71429 0,63.06437 0.0904,61.35397 -3.76055,71.16169 -7.69893,19.60792 -25.91277,35.53809 -46.59659,40.75426 -7.7576,1.95635 -24.76532,2.54239 -33.28659,1.14695 z"
           id="path853"
           inkscape:connector-curvature="0"
           transform="matrix(0.26458333,0,0,0.26458333,0,97)" />
      </g>
      <ellipse
         ry="17.622211"
         rx="18.290382"
         cy="148.66542"
         cx="122.27581"
         id="path860"
         style="opacity:1;fill:#fffffc;fill-opacity:1;fill-rule:evenodd;stroke:#000000;stroke-width:0.43515828;stroke-linecap:round;stroke-linejoin:round;stroke-miterlimit:4;stroke-dasharray:none;stroke-opacity:1" />
      <ellipse
         ry="17.622213"
         rx="18.290382"
         cy="148.93269"
         cx="85.526245"
         id="path860-9"
         style="opacity:1;fill:#fffffc;fill-opacity:1;fill-rule:evenodd;stroke:#000000;stroke-width:0.43515831;stroke-linecap:round;stroke-linejoin:round;stroke-miterlimit:4;stroke-dasharray:none;stroke-opacity:1" />
      <ellipse
         ry="17.622213"
         rx="18.290382"
         cy="150.00177"
         cx="48.643055"
         id="path860-7"
         style="opacity:1;fill:#fffffc;fill-opacity:1;fill-rule:evenodd;stroke:#000000;stroke-width:0.43515831;stroke-linecap:round;stroke-linejoin:round;stroke-miterlimit:4;stroke-dasharray:none;stroke-opacity:1" />
      <ellipse
         ry="17.622213"
         rx="18.290382"
         cy="184.7468"
         cx="49.712128"
         id="path860-3"
         style="opacity:1;fill:#fffffc;fill-opacity:1;fill-rule:evenodd;stroke:#000000;stroke-width:0.43515831;stroke-linecap:round;stroke-linejoin:round;stroke-miterlimit:4;stroke-dasharray:none;stroke-opacity:1" />
      <ellipse
         ry="17.622213"
         rx="18.290382"
         cy="219.49185"
         cx="49.712135"
         id="path860-6"
         style="opacity:1;fill:#fffffc;fill-opacity:1;fill-rule:evenodd;stroke:#000000;stroke-width:0.43515831;stroke-linecap:round;stroke-linejoin:round;stroke-miterlimit:4;stroke-dasharray:none;stroke-opacity:1" />
    </g>
  </g>
</svg>
